<svg xmlns="http://www.w3.org/2000/svg" width="80" height="80" viewBox="0 0 80 80" fill="none"><circle cx="40" cy="40" r="39.5" stroke="#214358" stroke-opacity="0.3"></circle><g clip-path="url(#clip0_415_1072)"><path d="M59.021 43.7393C58.8903 43.7915 58.9426 43.7654 59.021 43.7393V43.7393Z" fill="#122A38"></path><path d="M32.75 39.8691C32.8023 39.8953 32.8807 39.9214 32.9069 39.9214C32.8546 39.9214 32.7761 39.8691 32.75 39.8691Z" fill="#122A38"></path><path d="M54.3438 37.8302C54.4222 37.804 54.4222 37.804 54.3438 37.8302V37.8302Z" fill="#122A38"></path><path d="M45.7695 49.543L46.8153 52.0005H50.0048L48.9852 49.6998C47.9133 49.7783 46.8153 49.726 45.7695 49.543Z" fill="#214358"></path><path d="M32.4607 42.4316L28.1992 52.0003H31.3888L34.5522 44.5493C34.3169 44.3401 34.0816 44.1048 33.8463 43.8957C33.3757 43.4251 32.9312 42.9022 32.4607 42.4316Z" fill="#214358"></path><path d="M44.8015 40.2356L39.4943 28.2617C39.3375 27.9219 38.8669 27.9219 38.71 28.2617L34.9453 36.7846C35.7819 37.1768 36.5401 37.6735 37.246 38.1964L39.1022 33.8304L42.1349 40.9415C42.1349 40.9415 42.2917 41.0199 42.6054 40.9415C42.7362 40.9153 42.893 40.863 42.9453 40.863C43.3113 40.7846 43.6512 40.68 43.9911 40.5493C44.1479 40.497 44.3048 40.4186 44.4617 40.3663L44.8015 40.2356Z" fill="#214358"></path><path d="M57.1648 41.0201C56.1452 41.0986 55.1518 41.4907 54.3674 41.9352C53.557 42.4058 52.9034 42.9286 52.3021 43.3731C51.7008 43.8175 51.1518 44.2358 50.5766 44.5496C49.4786 45.177 48.1714 45.5953 46.6812 45.7783C46.1844 45.8306 45.6616 45.8829 45.1125 45.8829C45.7661 45.6999 46.3936 45.4907 46.9426 45.2293C47.1518 45.1509 47.3609 45.0724 47.5439 44.9679L48.1191 44.6541C48.5112 44.4711 48.8772 44.2358 49.2433 44.0005C49.9491 43.5299 50.6027 43.0332 51.204 42.5103L52.0406 41.7522L52.4328 41.3862L52.825 41.0463C52.9557 40.9156 53.0864 40.8371 53.2171 40.7326C53.3478 40.628 53.4786 40.5234 53.6093 40.4188C53.8969 40.2358 54.1583 40.0267 54.4459 39.8698L54.8903 39.6084C55.0472 39.5299 55.204 39.4777 55.3609 39.3992C55.6746 39.2424 56.0145 39.1378 56.3805 39.0071C57.7923 38.5365 59.3871 38.3012 61.0341 38.0398C59.4132 37.5692 57.7138 37.2816 55.9361 37.36C55.4916 37.3862 55.0472 37.4123 54.6027 37.4907C54.3674 37.5169 54.1583 37.5692 53.923 37.6214L53.2694 37.8045C52.825 37.909 52.4328 38.1182 52.0145 38.275C51.6223 38.4581 51.2302 38.6672 50.8642 38.8764C50.1321 39.2947 49.5047 39.7391 48.8772 40.1574C48.2498 40.5496 47.6746 40.9417 47.0733 41.2554C46.7596 41.4123 46.472 41.5953 46.1583 41.726L45.6877 41.9352C45.5308 42.0136 45.374 42.0659 45.191 42.1182C44.5374 42.4058 43.9361 42.5626 43.3348 42.6672C42.7596 42.7718 42.2106 42.7718 41.7138 42.6933C41.191 42.6149 40.6681 42.4058 40.1191 42.1182C39.5701 41.8306 39.021 41.4123 38.4459 40.9679C38.1583 40.7587 37.8969 40.4973 37.6093 40.262L36.6681 39.4777C35.9884 38.9286 35.2302 38.4319 34.4197 38.0136C33.6093 37.5953 32.6942 37.2816 31.7531 37.1247C30.8119 36.9679 29.7923 37.0201 28.9557 37.3339C28.0929 37.6737 27.4393 38.2228 26.9688 38.7979C27.7269 38.4842 28.4851 38.3012 29.2171 38.3012C29.9491 38.3012 30.6289 38.4842 31.2563 38.7718C32.5112 39.3469 33.5831 40.2881 34.472 41.3077L35.1779 42.1705C35.4393 42.4842 35.7269 42.7718 36.0145 43.0855C36.6158 43.6868 37.2694 44.2881 38.106 44.8371C38.9165 45.3862 39.9361 45.8306 41.008 46.0659C41.4524 46.1705 41.923 46.2228 42.3674 46.2228C43.4655 47.2685 45.0603 47.9482 46.7073 48.1835C48.6681 48.4711 50.8119 48.1574 52.5635 47.1639C53.4263 46.6933 54.1321 46.092 54.7073 45.4907C55.2825 44.8894 55.7792 44.3143 56.2236 43.8175C56.6942 43.2947 57.1387 42.8764 57.74 42.4842C58.3413 42.1182 59.0995 41.8306 59.9884 41.5953C59.1779 41.1509 58.1844 40.9417 57.1648 41.0201Z" fill="url(#paint0_linear_415_1072)"></path></g><defs><linearGradient id="paint0_linear_415_1072" x1="26.9642" y1="38.8328" x2="60.0932" y2="44.0033" gradientUnits="userSpaceOnUse"><stop stop-color="#214358"></stop><stop offset="0.3205" stop-color="#214358"></stop><stop offset="1" stop-color="#E08474"></stop></linearGradient><clipPath id="clip0_415_1072"><rect width="34.0654" height="24" fill="white" transform="translate(26.9688 28)"></rect></clipPath></defs></svg>