<svg xmlns="http://www.w3.org/2000/svg" width="133" height="30" viewBox="0 0 133 30" fill="none"><g clip-path="url(#clip0_707_905)"><path d="M130.971 19.3872C130.817 19.4733 130.872 19.4382 130.971 19.3872V19.3872Z" fill="white"></path><path d="M21.679 22.1774L1.30781 0.804644C0.815006 0.286244 -0.0585938 0.638244 -0.0585938 1.35504V29.5214H3.42941V8.14864L23.855 29.579C24.3286 30.075 25.167 29.7422 25.167 29.0542V0.807844H21.679V22.1774Z" fill="white"></path><path d="M47.6718 0.577492L34.875 29.5183H38.7726L42.2798 21.2175H54.1102L57.6366 29.5183H61.5342L48.7374 0.577492C48.5326 0.113492 47.8766 0.113492 47.6718 0.577492ZM48.2062 7.28789L52.6094 17.6367H43.8126L48.2062 7.28789Z" fill="white"></path><path d="M77.3976 23.0385L67.964 0.808105H64.0664L76.9016 29.8385C77.0904 30.2673 77.7016 30.2673 77.8904 29.8385L90.7288 0.808105H86.8312L77.3976 23.0385Z" fill="white"></path><path d="M98.8203 14.6509C98.8968 14.6828 98.9638 14.7051 99.0084 14.7019H99.0148C98.9383 14.7178 98.8522 14.6796 98.8203 14.6509Z" fill="white"></path><path d="M125.234 12.1804C125.234 12.1804 125.234 12.1804 125.23 12.1804C125.342 12.1326 125.348 12.1326 125.234 12.1804Z" fill="white"></path><path d="M114.742 26.5005L116.025 29.5181H119.923L118.672 26.6861C117.36 26.7949 116.035 26.7373 114.745 26.5005H114.742Z" fill="white"></path><path d="M98.4642 17.7997C98.4642 17.7997 98.4514 17.7901 98.4482 17.7837L93.2578 29.5181H97.1554L101.018 20.3853C100.727 20.1229 100.442 19.8541 100.167 19.5789C99.5842 18.9997 99.053 18.3725 98.4674 17.7965L98.4642 17.7997Z" fill="white"></path><path d="M113.546 15.1087L107.063 0.446319C106.88 0.0335188 106.295 0.0335188 106.112 0.446319L101.488 10.9039C102.499 11.3807 103.424 11.9791 104.317 12.6383L106.586 7.29112L110.282 15.9727C110.282 15.9727 110.471 16.0559 110.871 15.9567C111.037 15.9215 111.235 15.8671 111.271 15.8607C111.709 15.7615 112.138 15.6335 112.56 15.4863C112.759 15.4159 112.951 15.3391 113.146 15.2687L113.546 15.1119V15.1087Z" fill="white"></path><path d="M128.698 16.0783C127.444 16.1679 126.237 16.6415 125.265 17.2047C124.279 17.7679 123.485 18.4079 122.743 18.9551C122.004 19.5119 121.329 19.9951 120.634 20.3823C119.287 21.1439 117.674 21.6495 115.879 21.8703C115.255 21.9471 114.615 21.9919 113.956 21.9983C114.765 21.7775 115.521 21.5055 116.189 21.2079C116.433 21.0991 116.685 21.0031 116.922 20.8783L117.633 20.5071C118.113 20.2671 118.561 19.9919 118.996 19.7039C119.873 19.1311 120.666 18.5103 121.386 17.8799L122.42 16.9615L122.909 16.5135L123.389 16.0943C123.549 15.9471 123.713 15.8287 123.873 15.6975C124.033 15.5727 124.189 15.4319 124.356 15.3135C124.692 15.0959 125.015 14.8367 125.38 14.6511L125.917 14.3439C126.109 14.2607 126.305 14.1807 126.5 14.0879C126.877 13.8895 127.309 13.7711 127.732 13.6207C129.453 13.0543 131.405 12.7727 133.421 12.4367C131.444 11.8671 129.364 11.5183 127.185 11.6079C126.641 11.6431 126.09 11.6687 125.546 11.7839C125.271 11.8287 124.999 11.8831 124.724 11.9375L123.924 12.1711C123.373 12.3087 122.89 12.5519 122.375 12.7567C121.898 12.9903 121.402 13.2303 120.97 13.4959C120.071 14.0207 119.297 14.5583 118.538 15.0671C117.78 15.5503 117.069 16.0303 116.321 16.4175C115.943 16.6095 115.588 16.8207 115.194 16.9807L114.621 17.2431C114.433 17.3295 114.221 17.3935 114.026 17.4703C113.217 17.8063 112.487 18.0239 111.767 18.1583C111.053 18.2927 110.404 18.2927 109.773 18.1871C109.14 18.0943 108.506 17.8479 107.831 17.4895C107.156 17.1311 106.477 16.6351 105.783 16.0943C105.437 15.8255 105.098 15.5247 104.746 15.2335L103.61 14.2607C102.769 13.5823 101.853 12.9679 100.849 12.4655C99.8471 11.9599 98.7463 11.5631 97.5847 11.3743C96.4263 11.1887 95.1975 11.2431 94.1543 11.6207C93.1047 11.9855 92.2983 12.6351 91.7383 13.3647C92.6535 12.9743 93.5943 12.7503 94.4871 12.7503C95.3799 12.7535 96.2119 12.9679 96.9799 13.3167C98.5095 14.0175 99.8215 15.1631 100.916 16.4175L101.793 17.4607C102.119 17.8351 102.458 18.2063 102.823 18.5743C103.543 19.3167 104.372 20.0431 105.373 20.7023C106.369 21.3615 107.597 21.9087 108.935 22.1967C109.485 22.3119 110.045 22.3727 110.599 22.3951C111.933 23.6815 113.885 24.5103 115.905 24.8079C118.321 25.1599 120.941 24.7631 123.066 23.5567C124.116 22.9711 124.98 22.2351 125.687 21.5119C126.401 20.7823 126.983 20.0783 127.549 19.4511C128.119 18.8239 128.676 18.2863 129.412 17.8319C130.145 17.3711 131.082 17.0415 132.167 16.7311C131.153 16.2319 129.946 15.9791 128.695 16.0719L128.698 16.0783Z" fill="url(#paint0_linear_707_905)"></path></g><defs><linearGradient id="paint0_linear_707_905" x1="91.2511" y1="13.2713" x2="131.646" y2="19.5753" gradientUnits="userSpaceOnUse"><stop stop-color="white"></stop><stop offset="0.32" stop-color="white"></stop><stop offset="1" stop-color="#E08474"></stop></linearGradient><clipPath id="clip0_707_905"><rect width="133" height="30" fill="white"></rect></clipPath></defs></svg>